<svg id="Layer_1" data-name="Layer 1" xmlns="http://www.w3.org/2000/svg" viewBox="0 0 1421.05 758"><defs><style>.cls-1{fill:#161a1d;}</style></defs><polygon class="cls-1" points="1421.05 752.46 1305.02 752.93 1233.8 753.18 1177.83 656.35 1085.81 497.21 894.47 166.28 805.38 320.17 996.77 651.21 1056.14 753.91 937.1 754.34 876.28 754.6 716.3 477.94 715.18 475.98 623.02 316.58 531.88 158.96 333.36 501.77 241.34 660.7 185.41 757.28 184.97 757.28 121.03 757.53 0 758 60.68 653.13 148.89 500.79 183.74 440.58 437.43 2.32 441.31 2.28 621.14 1.52 622.08 3.19 713.23 160.81 802.34 6.88 805.89 0.76 986.01 0 988.37 4.09 1271.65 494.06 1363.16 652.37 1421.05 752.46"/><polygon class="cls-1" points="710.53 479.38 549.61 757.31 476.9 757.57 364.75 758 421 660.88 525.45 480.47 710.53 479.38"/></svg>