<svg id="Layer_1" data-name="Layer 1" xmlns="http://www.w3.org/2000/svg" viewBox="0 0 1422.78 759"><defs><style>.cls-1{fill:#2effe0;stroke:#2effe0;stroke-miterlimit:10;}</style></defs><polygon class="cls-1" points="1421.92 752.96 1305.88 753.43 1234.66 753.68 1178.69 656.85 1086.68 497.71 895.33 166.78 806.25 320.67 997.63 651.71 1057.01 754.41 937.97 754.84 877.15 755.1 717.17 478.44 716.05 476.48 623.89 317.08 532.74 159.46 334.22 502.27 242.21 661.2 186.28 757.78 185.84 757.78 121.9 758.03 0.87 758.5 61.55 653.63 149.76 501.29 184.61 441.08 438.3 2.82 442.18 2.78 622 2.02 622.95 3.69 714.09 161.31 803.21 7.38 806.76 1.26 986.88 0.5 989.23 4.59 1272.52 494.56 1364.03 652.86 1421.92 752.96"/><polygon class="cls-1" points="711.39 479.88 550.48 757.81 477.77 758.07 365.61 758.5 421.87 661.38 526.31 480.97 711.39 479.88"/></svg>