<svg id="Layer_2" data-name="Layer 2" xmlns="http://www.w3.org/2000/svg" viewBox="0 0 1431.58 259.08"><defs><style>.cls-1{fill:#efefef;}.cls-2{fill:#13eba2;}</style></defs><polygon class="cls-1" points="201.66 256.95 262.06 256.95 367.91 2.24 315.19 2.24 201.66 256.95"/><polygon class="cls-1" points="304.25 256.95 364.65 256.95 470.51 2.24 417.78 2.24 304.25 256.95"/><path class="cls-1" d="M971.61,620.71V875.42H923.22l-127-154.65V875.42H738V620.71h48.76L913.39,775.35V620.71Z" transform="translate(-34.12 -620.71)"/><path class="cls-1" d="M1029.83,763.34V620.71h59V761.16c0,48.4,21.11,68.41,56.77,68.41,36,0,56.76-20,56.76-68.41V620.71h58.22V763.34c0,75-42.94,116.44-115.35,116.44S1029.83,838.3,1029.83,763.34Z" transform="translate(-34.12 -620.71)"/><polygon class="cls-1" points="56.28 128.82 156.62 258.52 100.33 258.52 0 128.82 102.78 0.35 159.06 0.35 56.28 128.82"/><polygon class="cls-1" points="1375.64 129.62 1275.93 258.52 1331.87 258.52 1431.58 129.62 1329.43 1.94 1273.5 1.94 1375.64 129.62"/><polygon class="cls-2" points="406.85 256.95 520.38 2.24 578.6 2.24 692.49 256.95 630.63 256.95 549.12 60.1 467.25 256.95 406.85 256.95"/></svg>