<svg id="Dark_bg" data-name="Dark bg" xmlns="http://www.w3.org/2000/svg" xmlns:xlink="http://www.w3.org/1999/xlink" viewBox="0 0 639.16 384.41"><defs><style>.cls-1{fill:#e8ecf4;}.cls-2{fill:url(#linear-gradient);}</style><linearGradient id="linear-gradient" x1="453.51" y1="753.8" x2="1092.67" y2="753.8" gradientUnits="userSpaceOnUse"><stop offset="0" stop-color="#833ab4"/><stop offset="0.03" stop-color="#8c38a9"/><stop offset="0.19" stop-color="#bc2c6d"/><stop offset="0.33" stop-color="#df2442"/><stop offset="0.44" stop-color="#f51f27"/><stop offset="0.5" stop-color="#fd1d1d"/><stop offset="0.52" stop-color="#fd2720"/><stop offset="0.59" stop-color="#fd512b"/><stop offset="0.67" stop-color="#fc7334"/><stop offset="0.75" stop-color="#fc8e3c"/><stop offset="0.83" stop-color="#fca141"/><stop offset="0.91" stop-color="#fcac44"/><stop offset="1" stop-color="#fcb045"/></linearGradient></defs><path class="cls-1" d="M491.85,938.67h0a69.32,69.32,0,0,1-31-93L583.71,599.93a69.33,69.33,0,0,1,93-31h0a69.33,69.33,0,0,1,31,93L584.86,907.67A69.33,69.33,0,0,1,491.85,938.67Z" transform="translate(-453.51 -561.6)"/><path class="cls-1" d="M711.38,938.67h0a69.32,69.32,0,0,1-31-93L803.24,599.93a69.33,69.33,0,0,1,93-31h0a69.33,69.33,0,0,1,31,93L804.39,907.67A69.33,69.33,0,0,1,711.38,938.67Z" transform="translate(-453.51 -561.6)"/><path class="cls-1" d="M1091.94,927a19,19,0,0,1-19,19h-72.71a92.42,92.42,0,1,1,74.63-37.89A19,19,0,0,1,1091.94,927Z" transform="translate(-453.51 -561.6)"/><path class="cls-2" d="M491.85,938.67h0a69.32,69.32,0,0,1-31-93L583.71,599.93a69.33,69.33,0,0,1,93-31h0a69.33,69.33,0,0,1,31,93L584.86,907.67A69.33,69.33,0,0,1,491.85,938.67Z" transform="translate(-453.51 -561.6)"/><path class="cls-2" d="M711.38,938.67h0a69.32,69.32,0,0,1-31-93L803.24,599.93a69.33,69.33,0,0,1,93-31h0a69.33,69.33,0,0,1,31,93L804.39,907.67A69.33,69.33,0,0,1,711.38,938.67Z" transform="translate(-453.51 -561.6)"/><path class="cls-2" d="M1091.94,927a19,19,0,0,1-19,19h-72.71a92.42,92.42,0,1,1,74.63-37.89A19,19,0,0,1,1091.94,927Z" transform="translate(-453.51 -561.6)"/></svg>